<svg xmlns="http://www.w3.org/2000/svg">
    <defs>
        <symbol  id="facebook" width="48.000000" height="48.000000" viewBox="0 0 48 48">
            <path id="Vector" d="M24 0C37.2554 0 48 10.746 48 24.0001C48 37.2557 37.2554 48 24 48C10.7441 48 0 37.2555 0 24.0001C0 10.746 10.7446 0 24 0Z" fill="#3B5998" fill-opacity="1.000000" fill-rule="nonzero"/>
		    <path id="Vector" d="M26.9219 16.5224L30.0151 16.5224L30.0151 11.9534L26.3789 11.9534L26.3789 11.9698C21.9736 12.1259 21.0703 14.6023 20.9907 17.2034L20.9819 17.2034L20.9819 19.4849L17.9819 19.4849L17.9819 23.9593L20.9819 23.9593L20.9819 35.9533L25.5029 35.9533L25.5029 23.9593L29.2065 23.9593L29.9219 19.4849L25.5044 19.4849L25.5044 18.1065C25.5044 17.2274 26.0894 16.5224 26.9219 16.5224Z" fill="#FFFFFF" fill-opacity="1.000000" fill-rule="nonzero"/>
        </symbol>

        <symbol class="inst" id="instagram" width="48.000000" height="48.000000" viewBox="0 0 48 48">
            <path id="Vector"  d="M3 3.26597C-0.771973 7.18397 0 11.346 0 23.99C0 34.49 -1.83203 45.016 7.75586 47.494C10.75 48.264 37.2778 48.264 40.2681 47.49C44.2598 46.46 47.5078 43.222 47.9521 37.576C48.0137 36.788 48.0137 11.206 47.9497 10.402C47.478 4.38797 43.7759 0.921974 38.8979 0.219971C37.7798 0.0579681 37.5557 0.00997162 31.8198 -3.05176e-05C11.4741 0.00997162 7.01367 -0.896027 3 3.26597Z" fill="url(#paint_linear_122_1091_0)" fill-opacity="1.000000" fill-rule="nonzero"/>
		    <path id="Vector" d="M23.9956 6.27809C16.7334 6.27809 9.8374 5.63209 7.20361 12.3921C6.11572 15.1841 6.27344 18.8101 6.27344 24.0021C6.27344 28.5581 6.12744 32.8401 7.20361 35.6101C9.83154 42.3741 16.7837 41.7261 23.9917 41.7261C30.9458 41.7261 38.1157 42.4501 40.7817 35.6101C41.8716 32.7901 41.7114 29.2181 41.7114 24.0021C41.7114 17.0781 42.0938 12.6081 38.7358 9.25209C35.3354 5.85209 30.7378 6.27809 23.9878 6.27809L23.9956 6.27809ZM22.4077 9.47209C37.5557 9.44809 39.4834 7.76409 38.4194 31.1581C38.0415 39.4321 31.7417 38.5241 23.9976 38.5241C9.87744 38.5241 9.47168 38.1201 9.47168 23.9941C9.47168 9.70409 10.5918 9.48009 22.4077 9.46809L22.4077 9.47209ZM33.4556 12.4141C32.2817 12.4141 31.3296 13.3661 31.3296 14.5401C31.3296 15.7141 32.2817 16.6661 33.4556 16.6661C34.6294 16.6661 35.5815 15.7141 35.5815 14.5401C35.5815 13.3661 34.6294 12.4141 33.4556 12.4141ZM23.9956 14.9001C18.9697 14.9001 14.8955 18.9761 14.8955 24.0021C14.8955 29.0281 18.9697 33.1021 23.9956 33.1021C29.0215 33.1021 33.0938 29.0281 33.0938 24.0021C33.0938 18.9761 29.0215 14.9001 23.9956 14.9001ZM23.9956 18.0941C31.8057 18.0941 31.8154 29.9101 23.9956 29.9101C16.1875 29.9101 16.1758 18.0941 23.9956 18.0941Z" fill="#FFFFFF" fill-opacity="1.000000" fill-rule="nonzero"/>
        </symbol>

        <symbol  id="telegram" width="48.000000" height="48.000000" viewBox="0 0 48 48">
            <path id="Vector" d="M48 24C48 37.2548 37.2549 48 24 48C10.7451 48 0 37.2548 0 24C0 10.7452 10.7451 0 24 0C37.2549 0 48 10.7452 48 24Z" fill="#039BE5" fill-opacity="1.000000" fill-rule="evenodd"/>
		    <path id="Vector" d="M10.9814 23.4799L34.1216 14.5579C35.1953 14.1699 36.1338 14.8199 35.7856 16.4439L35.7876 16.4419L31.8477 35.0039C31.5557 36.3199 30.7734 36.6399 29.6797 36.0199L23.6797 31.5979L20.7856 34.3859C20.4653 34.7059 20.1953 34.9759 19.5757 34.9759L20.0015 28.8699L31.1216 18.8239C31.6055 18.3979 31.0137 18.1579 30.3755 18.5819L16.6338 27.2339L10.7095 25.3859C9.42334 24.9779 9.39551 24.0999 10.9814 23.4799Z" fill="#FFFFFF" fill-opacity="1.000000" fill-rule="nonzero"/>
        </symbol>

        <symbol  id="vk" width="48.000000" height="48.000000" viewBox="0 0 48 48">
            <path id="XMLID_11_" d="M48 24C48 37.2548 37.2549 48 24 48C10.7451 48 0 37.2548 0 24C0 10.7452 10.7451 0 24 0C37.2549 0 48 10.7452 48 24Z" fill="#4D76A1" fill-opacity="1.000000" fill-rule="evenodd"/>
		    <path id="Vector" d="M23.0933 34.5262L24.9771 34.5262C24.9771 34.5262 25.5459 34.4637 25.8364 34.1506C26.104 33.8631 26.0952 33.3232 26.0952 33.3232C26.0952 33.3232 26.0586 30.7956 27.2314 30.4234C28.3882 30.0567 29.873 32.8662 31.4468 33.9465C32.6372 34.7641 33.5415 34.5848 33.5415 34.5848L37.75 34.5262C37.75 34.5262 39.9517 34.3906 38.9077 32.6596C38.8223 32.518 38.2998 31.3791 35.7788 29.0389C33.1396 26.5897 33.4932 26.9858 36.6719 22.7491C38.6079 20.1689 39.3818 18.5937 39.1401 17.919C38.9097 17.2764 37.4858 17.4462 37.4858 17.4462L32.7471 17.4757C32.7471 17.4757 32.396 17.4278 32.1353 17.5836C31.8809 17.7363 31.7168 18.0922 31.7168 18.0922C31.7168 18.0922 30.9668 20.0889 29.9668 21.7869C27.8564 25.3699 27.0132 25.559 26.668 25.3366C25.8662 24.818 26.0664 23.2535 26.0664 22.142C26.0664 18.6698 26.5928 17.2221 25.0405 16.8473C24.5259 16.7228 24.1465 16.6406 22.8291 16.6274C21.1387 16.6098 19.7075 16.6325 18.8975 17.0295C18.3584 17.2935 17.9424 17.8818 18.1958 17.9156C18.5088 17.9575 19.2183 18.1068 19.5942 18.6189C20.0796 19.2794 20.0625 20.7631 20.0625 20.7631C20.0625 20.7631 20.3418 24.8506 19.4111 25.3584C18.7725 25.7066 17.896 24.9956 16.0151 21.745C15.0513 20.0799 14.3232 18.2394 14.3232 18.2394C14.3232 18.2394 14.1831 17.8954 13.9326 17.7115C13.6289 17.4886 13.2046 17.4176 13.2046 17.4176L8.70166 17.4471C8.70166 17.4471 8.02588 17.4659 7.77783 17.7598C7.55713 18.0212 7.76025 18.562 7.76025 18.562C7.76025 18.562 11.2856 26.8096 15.2769 30.9659C18.937 34.7765 23.0933 34.5262 23.0933 34.5262Z" fill="#FFFFFF" fill-opacity="1.000000" fill-rule="evenodd"/>
        </symbol>

        <symbol  id="whatsapp" width="48.000000" height="48.000000" viewBox="0 0 48 48">
            <path id="Vector" d="M23.9873 0.0125885C10.7402 0.0153961 0.00341797 10.7565 0.00634766 24.0035C0.00732422 28.5905 1.32373 33.081 3.79883 36.9428L0.0673828 46.6251C-0.131348 47.14 0.125 47.7186 0.639648 47.9173C0.754883 47.9617 0.877441 47.9845 1.00049 47.9843C1.11523 47.9849 1.229 47.9653 1.33643 47.9263L11.3306 44.3584C22.5752 51.3616 37.3677 47.9233 44.3711 36.6787C51.374 25.4342 47.9355 10.6416 36.6914 3.63847C32.8794 1.26443 28.478 0.00817871 23.9873 0.0125885Z" fill="#55CD6C" fill-opacity="1.000000" fill-rule="nonzero"/>
		    <path id="Vector" d="M35.4224 28.0979C35.4224 28.0979 32.9741 26.8986 31.4409 26.0991C29.7061 25.2057 27.667 26.8787 26.7075 27.8301C25.2144 27.2565 23.8506 26.3908 22.6963 25.2836C21.5889 24.1292 20.7231 22.7654 20.1494 21.272C21.1011 20.3106 22.77 18.2738 21.8804 16.5388C21.0908 15.0037 19.8818 12.5572 19.8818 12.5552C19.7119 12.2185 19.3672 12.0059 18.9902 12.0055L16.9917 12.0055C14.0806 12.5083 11.9639 15.0481 11.9946 18.0019C11.9946 21.1401 15.75 27.1685 18.2827 29.703C20.8154 32.2374 26.8438 35.9913 29.9839 35.9913C32.9375 36.0217 35.4775 33.9051 35.9805 30.9943L35.9805 28.9955C35.9805 28.6143 35.7642 28.2663 35.4224 28.0979Z" fill="#FAFAFA" fill-opacity="1.000000" fill-rule="nonzero"/>
        </symbol>


        <symbol  id="github" width="42.000000" height="42.000000">
            <path id="Vector" d="M21 0.875C9.39746 0.875 0 10.115 0 21.511C0 30.6302 6.0166 38.3635 14.3589 41.09C15.4087 41.2843 15.7939 40.6455 15.7939 40.0978C15.7939 39.6078 15.7764 38.3092 15.7676 36.589C9.92578 37.8333 8.69385 33.8206 8.69385 33.8206C7.73828 31.4387 6.35791 30.8018 6.35791 30.8018C4.45557 29.5225 6.50488 29.5487 6.50488 29.5487C8.61328 29.6923 9.72119 31.675 9.72119 31.675C11.5938 34.8302 14.6372 33.9185 15.8374 33.3917C16.0264 32.0565 16.5674 31.1482 17.1675 30.632C12.5039 30.1157 7.60205 28.3413 7.60205 20.4347C7.60205 18.1825 8.41553 16.3416 9.76318 14.8977C9.52686 14.3762 8.81836 12.278 9.94678 9.43604C9.94678 9.43604 11.7056 8.88306 15.7222 11.5518C17.4019 11.0933 19.187 10.8657 20.9722 10.8552C22.7568 10.8657 24.542 11.0933 26.2222 11.5518C30.2119 8.88306 31.9707 9.43604 31.9707 9.43604C33.0996 12.278 32.3906 14.3762 32.1807 14.8977C33.5195 16.3416 34.333 18.1825 34.333 20.4347C34.333 28.3623 29.4243 30.1071 24.752 30.6145C25.4868 31.234 26.1694 32.4993 26.1694 34.433C26.1694 37.1945 26.1431 39.4135 26.1431 40.0837C26.1431 40.6245 26.5107 41.2703 27.5869 41.0637C35.9888 38.3547 42 30.6162 42 21.511C42 10.115 32.5972 0.875 21 0.875Z" fill="#212121" fill-opacity="1.000000" fill-rule="nonzero"/>
        </symbol>

        <symbol  id="linkedin" width="32.000000" height="32.000000">
            <path id="XMLID_802_" d="M7.44873 10.2947L1.0249 10.2947C0.739746 10.2947 0.508789 10.5258 0.508789 10.8108L0.508789 31.4485C0.508789 31.7336 0.739746 31.9646 1.0249 31.9646L7.44873 31.9646C7.73389 31.9646 7.96533 31.7336 7.96533 31.4485L7.96533 10.8108C7.96533 10.5258 7.73389 10.2947 7.44873 10.2947Z" fill="#000000" fill-opacity="1.000000" fill-rule="nonzero"/>
			<path id="XMLID_803_" d="M4.23926 0.0351562C1.90186 0.0351562 0 1.93469 0 4.26953C0 6.60547 1.90186 8.50574 4.23926 8.50574C6.57471 8.50574 8.47461 6.60535 8.47461 4.26953C8.47461 1.93469 6.57471 0.0351562 4.23926 0.0351562Z" fill="#000000" fill-opacity="1.000000" fill-rule="nonzero"/>
			<path id="XMLID_804_" d="M23.7886 9.78174C21.2085 9.78174 19.3013 10.8909 18.1445 12.1511L18.1445 10.8108C18.1445 10.5258 17.9136 10.2947 17.6284 10.2947L11.4761 10.2947C11.1909 10.2947 10.96 10.5258 10.96 10.8108L10.96 31.4485C10.96 31.7336 11.1909 31.9646 11.4761 31.9646L17.8862 31.9646C18.1714 31.9646 18.4023 31.7336 18.4023 31.4485L18.4023 21.2377C18.4023 17.7968 19.3369 16.4563 21.7354 16.4563C24.3477 16.4563 24.5552 18.6052 24.5552 21.4147L24.5552 31.4486C24.5552 31.7338 24.7861 31.9647 25.0713 31.9647L31.4839 31.9647C31.769 31.9647 32 31.7338 32 31.4486L32 20.1284C32 15.0121 31.0244 9.78174 23.7886 9.78174Z" fill="#000000" fill-opacity="1.000000" fill-rule="nonzero"/>
        </symbol>
    </defs>
</svg>